<svg width="1280" height="430" viewBox="0 0 1280 430" fill="none" xmlns="http://www.w3.org/2000/svg">
  <defs>
    <linearGradient id="panel" x1="0" y1="0" x2="1" y2="1"><stop stop-color="#0A1B2C"/><stop offset="1" stop-color="#0C3049"/></linearGradient>
    <marker id="arrow" markerWidth="12" markerHeight="12" refX="10" refY="6" orient="auto"><path d="M0 0L12 6L0 12V0Z" fill="#5FDFFF"/></marker>
  </defs>
  <rect width="1280" height="430" rx="30" fill="#06111F"/>
  <text x="640" y="62" text-anchor="middle" fill="white" font-family="Inter,Segoe UI,Arial,sans-serif" font-size="30" font-weight="900">One connected delivery workflow</text>
  <g stroke="#5FDFFF" stroke-width="4" stroke-linecap="round" marker-end="url(#arrow)">
    <path d="M339 215H456"/><path d="M824 215H941"/>
  </g>
  <g font-family="Inter,Segoe UI,Arial,sans-serif">
    <g><rect x="70" y="112" width="270" height="210" rx="26" fill="url(#panel)" stroke="#55D9FF" stroke-opacity="0.35"/>
      <circle cx="205" cy="168" r="35" fill="#5FDFFF" fill-opacity="0.16"/><path d="M205 143C205 143 184 169 184 181C184 193 193 202 205 202C217 202 226 193 226 181C226 169 205 143 205 143Z" fill="#79E9FF"/>
      <text x="205" y="244" text-anchor="middle" fill="white" font-size="24" font-weight="800">Customer</text><text x="205" y="278" text-anchor="middle" fill="#A9CCDC" font-size="17">Places and tracks orders</text></g>
    <g><rect x="455" y="92" width="370" height="250" rx="30" fill="url(#panel)" stroke="#55D9FF" stroke-opacity="0.5"/>
      <rect x="501" y="134" width="278" height="100" rx="18" fill="#55D9FF" fill-opacity="0.1"/><rect x="525" y="157" width="76" height="54" rx="12" fill="#5FDFFF" fill-opacity="0.28"/><rect x="618" y="157" width="137" height="12" rx="6" fill="#BDEFFF" fill-opacity="0.7"/><rect x="618" y="185" width="98" height="10" rx="5" fill="#77B4CB" fill-opacity="0.7"/>
      <text x="640" y="278" text-anchor="middle" fill="white" font-size="26" font-weight="800">Admin operations</text><text x="640" y="312" text-anchor="middle" fill="#A9CCDC" font-size="17">Accepts, invoices and manages delivery</text></g>
    <g><rect x="940" y="112" width="270" height="210" rx="26" fill="url(#panel)" stroke="#55D9FF" stroke-opacity="0.35"/>
      <circle cx="1075" cy="172" r="38" fill="#5FDFFF" fill-opacity="0.16"/><path d="M1057 172L1069 184L1094 158" stroke="#7EF2C2" stroke-width="8" stroke-linecap="round" stroke-linejoin="round"/>
      <text x="1075" y="244" text-anchor="middle" fill="white" font-size="24" font-weight="800">Delivery complete</text><text x="1075" y="278" text-anchor="middle" fill="#A9CCDC" font-size="17">Status and invoice synced</text></g>
  </g>
</svg>
